<?xml version="1.0" encoding="UTF-8"?>
<!DOCTYPE svg PUBLIC "-//W3C//DTD SVG 1.1//EN" "http://www.w3.org/Graphics/SVG/1.1/DTD/svg11.dtd">
<!-- Creator: CorelDRAW X8 -->
<svg xmlns="http://www.w3.org/2000/svg" xml:space="preserve" width="91px" height="83px" version="1.1" shape-rendering="geometricPrecision" text-rendering="geometricPrecision" image-rendering="optimizeQuality" fill-rule="evenodd" clip-rule="evenodd"
viewBox="0 0 15820 14419"
 xmlns:xlink="http://www.w3.org/1999/xlink">
 <g id="Слой_x0020_1">
  <metadata id="CorelCorpID_0Corel-Layer"/>
  <path fill="#444444" d="M2012 1351c40,206 551,1680 661,2011l2016 6049c338,1014 434,913 1720,752l7178 -889c463,-57 735,-73 899,-417 85,-178 1338,-5913 1334,-6069 -18,-775 -903,-653 -1389,-653 -1789,0 -3578,0 -5367,0 -1782,0 -3611,41 -5387,-1 -194,-553 -361,-1176 -571,-1706 -106,-269 -331,-416 -701,-421 -383,-6 -770,0 -1153,0 -345,0 -736,-54 -984,139 -418,324 -434,1205 590,1203 382,-1 773,-8 1154,2z"/>
  <path fill="#444444" d="M12783 11242c-775,177 -1454,908 -1237,1907 165,758 924,1430 1892,1236 772,-155 1459,-921 1253,-1910 -158,-759 -937,-1455 -1908,-1233z"/>
  <path fill="#444444" d="M4687 11240c-775,176 -1462,912 -1240,1914 168,757 928,1427 1897,1230 767,-156 1453,-934 1249,-1902 -160,-758 -932,-1463 -1906,-1242z"/>
 </g>
</svg>
