<?xml version="1.0" encoding="UTF-8"?>
<!DOCTYPE svg PUBLIC "-//W3C//DTD SVG 1.1//EN" "http://www.w3.org/Graphics/SVG/1.1/DTD/svg11.dtd">
<!-- Creator: CorelDRAW X8 -->
<svg xmlns="http://www.w3.org/2000/svg" xml:space="preserve" width="61px" height="83px" version="1.1" shape-rendering="geometricPrecision" text-rendering="geometricPrecision" image-rendering="optimizeQuality" fill-rule="evenodd" clip-rule="evenodd"
viewBox="0 0 19947 27094"
 xmlns:xlink="http://www.w3.org/1999/xlink">
 <g id="Слой_x0020_1">
  <metadata id="CorelCorpID_0Corel-Layer"/>
  <path fill="#444444" d="M9974 4393c2738,0 4959,2220 4959,4959 0,2739 -2221,4959 -4959,4959 -2739,0 -4960,-2220 -4960,-4959 0,-2739 2221,-4959 4960,-4959zm-9870 6827c647,4272 5998,11374 8815,14756 437,525 878,1547 1444,921l3868 -4951c3504,-4961 7860,-10857 4521,-16697 -1473,-2577 -3783,-4407 -6715,-5037 -6554,-1408 -12932,4414 -11933,11008z"/>
 </g>
</svg>
