<?xml version="1.0" encoding="UTF-8"?>
<!DOCTYPE svg PUBLIC "-//W3C//DTD SVG 1.1//EN" "http://www.w3.org/Graphics/SVG/1.1/DTD/svg11.dtd">
<!-- Creator: CorelDRAW X8 -->
<svg xmlns="http://www.w3.org/2000/svg" xml:space="preserve" width="2173px" height="617px" version="1.1" shape-rendering="geometricPrecision" text-rendering="geometricPrecision" image-rendering="optimizeQuality" fill-rule="evenodd" clip-rule="evenodd"
viewBox="0 0 184205 52262"
 xmlns:xlink="http://www.w3.org/1999/xlink">
 <g id="Слой_x0020_1">
  <metadata id="CorelCorpID_0Corel-Layer"/>
  <g id="_2398375318768">
   <path fill="#1DAB4B" fill-rule="nonzero" d="M131000 10697c-876,466 -1537,1148 -1980,2038 -460,924 -691,2082 -691,3467 0,952 126,1788 377,2505 241,689 602,1276 1081,1754l0 3c368,368 771,693 1209,974 438,281 908,516 1409,704l812 305c-1169,2004 -2319,4043 -3516,6026 -243,397 -498,753 -764,1065 -273,319 -557,593 -852,820 -299,230 -620,411 -969,544 -341,131 -710,218 -1112,262l-68 8 0 779 50 16c382,128 751,223 1103,287 333,60 658,91 975,91 537,0 1035,-59 1490,-175 448,-113 855,-281 1217,-501 365,-223 715,-528 1052,-919 352,-407 692,-912 1026,-1519l3568 -6457 3191 0 0 9229 3231 0 0 -18535c0,-587 42,-1054 106,-1425 91,-536 233,-890 363,-1118l1 1c172,-300 446,-517 818,-648 282,-101 626,-151 1027,-151l419 0 0 -838 -8622 0c-1099,0 -2150,119 -3146,356 -996,237 -1934,588 -2805,1052zm8608 858l0 9557 -596 116c-324,63 -646,111 -965,144 -330,34 -638,51 -925,51 -359,0 -737,-49 -1130,-146 -374,-92 -762,-230 -1161,-413 -411,-188 -788,-429 -1133,-725 -338,-290 -648,-637 -937,-1044 -290,-410 -507,-878 -650,-1401 -140,-511 -210,-1066 -210,-1662 0,-597 70,-1152 210,-1663 143,-523 360,-991 650,-1401 289,-407 599,-754 937,-1044 345,-296 722,-537 1133,-725 400,-183 787,-321 1161,-413 393,-97 771,-146 1130,-146 286,0 595,17 924,51 319,33 641,81 966,144l596 116 0 604z"/>
   <path fill="#1DAB4B" fill-rule="nonzero" d="M157214 15442c-810,0 -1561,108 -2250,323 -680,213 -1307,533 -1876,959l-555 414 -446 -532c-80,-96 -165,-180 -255,-254 -91,-74 -194,-141 -306,-202 -219,-118 -484,-207 -800,-268 -340,-66 -739,-98 -1203,-98l-3153 0 0 837 760 0c402,0 745,51 1028,151 374,132 648,349 819,648l0 2c130,229 272,583 363,1116 64,371 106,838 106,1424l0 18535 3231 0 0 -7081 986 364c169,62 319,115 450,157 148,48 298,92 448,134 322,89 679,157 1067,203 387,47 803,71 1244,71 1085,0 2038,-202 2852,-602 804,-395 1489,-993 2049,-1789 552,-785 968,-1680 1246,-2680 282,-1014 425,-2144 425,-3381 0,-1221 -139,-2343 -413,-3358 -270,-998 -673,-1895 -1207,-2685 -546,-807 -1201,-1410 -1961,-1808 -762,-399 -1647,-600 -2649,-600zm-4403 3321c416,-595 903,-1042 1468,-1343 572,-306 1207,-457 1909,-457 642,0 1200,160 1692,490 471,317 858,780 1177,1402 333,648 581,1401 744,2252 161,835 241,1766 241,2786 0,1034 -84,1971 -251,2804l-3 0c-172,860 -433,1612 -781,2251 -342,628 -769,1094 -1300,1408 -532,315 -1146,467 -1860,467 -231,0 -472,-24 -722,-71 -238,-44 -479,-111 -721,-199 -185,-67 -388,-147 -610,-238 -214,-88 -442,-186 -682,-293l-435 -195 0 -10871 134 -193z"/>
   <path fill="#1DAB4B" fill-rule="nonzero" d="M183841 30844c-118,-118 -255,-209 -405,-270 -152,-61 -321,-93 -504,-93l-1290 0 0 -14697 -13827 0 0 837 77 0c401,0 745,51 1027,151 374,132 648,349 819,648l0 2c131,229 273,583 364,1116 63,371 105,838 105,1424 0,840 -42,1725 -127,2648 -84,920 -207,1841 -367,2756 -147,832 -332,1639 -554,2416 -222,777 -483,1527 -782,2246l-188 453 -981 0c-183,0 -353,32 -504,94 -148,59 -284,150 -405,271l-2 0c-118,117 -208,253 -269,404 -61,151 -93,321 -93,505l0 5546 1517 0 7 -69c94,-994 232,-1765 387,-2362 217,-840 473,-1364 691,-1687 272,-401 613,-699 1040,-899 403,-190 862,-281 1391,-281l8204 0c529,0 988,91 1391,281 427,200 768,498 1040,900 218,322 474,846 691,1686 154,597 293,1368 388,2362l6 69 1517 0 0 -5546c0,-183 -32,-353 -93,-505 -61,-150 -152,-287 -271,-406zm-5430 -12805l0 12442 -7645 0 318 -963c236,-718 442,-1458 615,-2218 175,-773 323,-1580 441,-2420 134,-952 237,-2002 311,-3144 75,-1164 119,-2400 132,-3703l7 -728 5821 0 0 734z"/>
   <path fill="#F05124" fill-rule="nonzero" d="M72419 30315c-204,-199 -477,-533 -801,-1091 -232,-399 -497,-919 -788,-1596l-3 -11 -7537 -18328 -1134 0 -9636 22714 1712 0 2735 -6495 9459 0 834 2169 6 11c327,899 715,1652 1161,2256 426,577 905,1016 1434,1314l0 3c540,304 1089,534 1644,688 540,149 1089,225 1643,225 270,0 516,-14 735,-42 227,-29 446,-72 654,-130l56 -15 0 -817 -68 -7c-438,-43 -829,-130 -1169,-262 -371,-143 -684,-339 -937,-586zm-14435 -7352l3711 -8609 3987 9633 -8139 0 441 -1024z"/>
   <path fill="#F05124" fill-rule="nonzero" d="M85375 15783l-11357 0 0 838 419 0c401,0 745,51 1027,151 374,132 648,349 819,648l0 2c131,229 273,583 364,1116 63,371 106,838 106,1424l0 12041 3230 0 0 -14698 3683 0c510,0 972,70 1392,212 440,149 822,373 1152,673l0 3c331,304 577,665 739,1091 153,403 229,855 229,1362l0 77 838 0 0 -2128c0,-933 -237,-1648 -680,-2113 -433,-455 -1097,-699 -1961,-699z"/>
   <path fill="#F05124" fill-rule="nonzero" d="M99831 15442c-810,0 -1561,108 -2250,323 -680,213 -1307,533 -1876,959l-555 414 -446 -532c-80,-96 -165,-180 -256,-254 -91,-74 -193,-141 -305,-202 -219,-118 -485,-207 -800,-268 -340,-66 -740,-99 -1203,-99l-3154 0 0 838 761 0c402,0 745,51 1028,151 373,132 647,349 818,648l0 2c131,229 273,583 364,1116 63,371 106,839 106,1424l0 18535 3230 0 0 -7081 987 364c169,62 319,115 450,157 159,51 308,96 445,134l3 0c322,88 679,157 1066,203 388,47 803,71 1245,71 1085,0 2038,-202 2852,-602 804,-395 1489,-992 2049,-1789 551,-785 967,-1680 1246,-2680 282,-1014 424,-2144 424,-3381 0,-1221 -138,-2343 -412,-3358 -270,-998 -673,-1895 -1207,-2685 -546,-807 -1201,-1410 -1961,-1808 -763,-399 -1647,-600 -2649,-600zm1792 13506c-342,628 -769,1094 -1299,1408 -533,315 -1146,467 -1861,467 -230,0 -471,-24 -721,-71 -238,-44 -479,-111 -721,-199 -184,-67 -388,-147 -610,-237 -214,-88 -441,-186 -682,-294l-436 -195 0 -10871 135 -193c416,-595 903,-1041 1467,-1343 573,-306 1207,-457 1910,-457 642,0 1200,160 1692,490 471,317 858,780 1177,1402 333,648 581,1401 744,2252 160,835 241,1766 241,2786 0,1034 -84,1971 -251,2804l-3 0c-83,414 -187,803 -311,1167l120 0 -591 1084z"/>
   <path fill="#F05124" fill-rule="nonzero" d="M123011 19528c-299,-644 -670,-1223 -1109,-1733 -437,-509 -944,-952 -1516,-1324 -571,-371 -1197,-650 -1872,-838 -679,-188 -1415,-283 -2205,-283 -789,0 -1526,95 -2205,283 -675,188 -1301,468 -1872,838 -572,373 -1079,815 -1516,1324 -439,510 -810,1089 -1108,1733 -298,640 -522,1317 -671,2026 -149,710 -225,1461 -225,2247 0,787 76,1538 225,2249 149,708 373,1385 670,2025 299,644 670,1223 1109,1734 437,508 944,951 1516,1322 571,371 1196,651 1871,839 679,188 1416,283 2206,283 790,0 1527,-95 2206,-283 675,-188 1300,-468 1871,-839 572,-371 1079,-814 1516,-1322 439,-511 810,-1090 1109,-1734 297,-641 521,-1318 670,-2027 150,-710 225,-1461 225,-2247 0,-785 -75,-1535 -225,-2246 -149,-708 -373,-1386 -670,-2027zm-3033 7804c-169,512 -377,978 -622,1394 -252,429 -540,797 -861,1101 -316,299 -652,523 -1013,674 -371,154 -760,230 -1173,230 -412,0 -801,-76 -1172,-230 -362,-151 -698,-375 -1013,-674 -322,-305 -610,-673 -862,-1101 -246,-417 -453,-883 -622,-1395 -175,-529 -307,-1094 -395,-1689 -87,-590 -131,-1205 -131,-1841 0,-635 44,-1250 131,-1840 88,-595 220,-1160 395,-1690 169,-512 377,-977 622,-1394 252,-428 540,-797 862,-1101 315,-299 651,-523 1013,-674 371,-154 760,-231 1172,-231 413,0 802,77 1173,231 361,151 697,375 1013,674 321,304 609,672 861,1100 245,417 453,883 622,1395 175,531 307,1096 395,1691 88,590 132,1205 132,1839 0,636 -44,1250 -132,1840 -88,595 -220,1160 -395,1691z"/>
   <path fill="#1DAB4B" fill-rule="nonzero" d="M36601 34794c-7509,-1732 -2443,9865 -2443,9865 0,0 9285,-8286 2443,-9865z"/>
   <path fill="#1DAB4B" fill-rule="nonzero" d="M41143 30864c-5617,1396 1723,7436 1723,7436 0,0 3396,-8708 -1723,-7436z"/>
   <path fill="#1DAB4B" fill-rule="nonzero" d="M13344 44076c0,0 20218,3918 15437,-6674 -5246,-11622 -15437,6674 -15437,6674z"/>
   <path fill="#1DAB4B" fill-rule="nonzero" d="M18446 32769c5185,-14071 -18446,-7134 -18446,-7134 0,0 13721,19956 18446,7134z"/>
   <path fill="#1DAB4B" fill-rule="nonzero" d="M12113 21706c12191,-3254 -4034,-16146 -4034,-16146 0,0 -7077,19111 4034,16146z"/>
   <path fill="#1DAB4B" fill-rule="nonzero" d="M17847 11557c8796,2028 2858,-11557 2858,-11557 0,0 -10874,9710 -2858,11557z"/>
   <path fill="#1DAB4B" fill-rule="nonzero" d="M25976 7580c5065,4340 5829,-6588 5829,-6588 0,0 -10445,2634 -5829,6588z"/>
   <path fill="#1DAB4B" fill-rule="nonzero" d="M34007 9424c2987,4638 6179,-3842 6179,-3842 0,0 -8901,-385 -6179,3842z"/>
   <path fill="#1DAB4B" fill-rule="nonzero" d="M44442 12334c0,0 -5956,-3366 -5567,475 428,4214 5567,-475 5567,-475z"/>
   <path fill="#1DAB4B" fill-rule="nonzero" d="M45808 22141c0,0 -1342,-6708 -3996,-3905 -2912,3077 3996,3905 3996,3905z"/>
   <path fill="#666666" fill-rule="nonzero" d="M56395 50402l-880 0 0 -4139 -2159 0 0 4139 -880 0 0 -4836 3919 0 0 4836zm5775 -4836l0 4836 -880 0 0 -4139 -1635 0 0 1369c0,953 -127,1653 -380,2100 -253,447 -685,670 -1297,670l-250 0 18 -750 183 -5c313,0 531,-153 655,-458 123,-306 186,-825 186,-1557l0 -2066 3400 0zm1512 2374c0,-716 194,-1305 581,-1768 388,-464 914,-696 1577,-696 672,0 1201,232 1590,694 389,461 583,1051 583,1770l0 97c0,722 -194,1312 -581,1770 -388,459 -914,688 -1582,690 -667,-2 -1196,-231 -1584,-691 -389,-461 -584,-1050 -584,-1769l0 -97zm880 97c0,513 108,936 325,1270 215,334 537,500 963,500 421,0 738,-166 956,-500 218,-334 327,-757 327,-1270l0 -97c0,-507 -110,-929 -328,-1265 -220,-337 -540,-505 -965,-505 -419,0 -738,168 -953,505 -217,336 -325,758 -325,1265l0 97zm5981 -2471l0 4148 1703 0 0 -4148 882 0 0 4148 1702 0 0 -4148 881 0 0 4188 785 0 0 2158 -871 0 0 -1510 -5962 0 0 -4836 880 0zm10406 4836c-29,-146 -52,-275 -69,-386 -17,-113 -26,-224 -29,-339 -164,234 -378,428 -642,585 -262,155 -548,233 -851,235 -504,-2 -887,-130 -1151,-388 -263,-258 -395,-613 -395,-1066 0,-461 186,-822 560,-1083 374,-261 882,-391 1523,-391l956 0 0 -479c0,-282 -87,-506 -259,-673 -172,-164 -418,-247 -734,-247 -285,0 -517,70 -693,214 -175,143 -263,314 -263,514l-835 9 -9 -27c-21,-351 143,-673 493,-965 351,-293 802,-439 1357,-439 548,0 989,140 1323,418 334,279 501,680 501,1205l0 2328c0,174 9,340 25,501 19,161 52,318 100,474l-908 0zm-1462 -644c319,0 608,-82 864,-245 256,-164 422,-353 500,-563l0 -787 -988 0c-354,0 -638,90 -852,268 -212,179 -318,389 -318,630 0,215 67,385 201,510 133,125 331,187 593,187zm4240 -44c231,0 401,-192 506,-575 107,-383 183,-967 230,-1754l116 -1819 3210 0 0 4148 639 0 0 2288 -880 0 0 -1600 -3416 0 0 1600 -880 0 0 -2288 475 0zm1621 -2329c-35,569 -84,1040 -145,1411 -61,370 -152,677 -274,918l1980 0 0 -3365 -1498 0 -63 1036zm5982 965l-452 0 0 2052 -880 0 0 -4836 880 0 0 2043 377 0 1728 -2043 1033 0 9 23 -2007 2297 2160 2493 -9 23 -1082 0 -1757 -2052zm7174 2052c-29,-146 -52,-275 -69,-386 -16,-113 -26,-224 -29,-339 -164,234 -378,428 -642,585 -262,155 -548,233 -851,235 -504,-2 -887,-130 -1151,-388 -263,-258 -395,-613 -395,-1066 0,-461 186,-822 560,-1083 374,-261 882,-391 1523,-391l956 0 0 -479c0,-282 -87,-506 -259,-673 -172,-164 -418,-247 -734,-247 -285,0 -517,70 -692,214 -176,143 -264,314 -264,514l-835 9 -9 -27c-21,-351 143,-673 493,-965 351,-293 802,-439 1358,-439 547,0 988,140 1322,418 334,279 501,680 501,1205l0 2328c0,174 9,340 25,501 19,161 52,318 100,474l-908 0zm-1462 -644c319,0 608,-82 864,-245 256,-164 422,-353 500,-563l0 -787 -988 0c-354,0 -638,90 -852,268 -212,179 -318,389 -318,630 0,215 67,385 201,510 133,125 331,187 593,187zm6514 -44c232,0 401,-192 507,-575 107,-383 183,-967 230,-1754l116 -1819 3210 0 0 4148 639 0 0 2288 -880 0 0 -1600 -3416 0 0 1600 -880 0 0 -2288 474 0zm1622 -2329c-35,569 -84,1040 -145,1411 -61,370 -153,677 -275,918l1981 0 0 -3365 -1499 0 -62 1036zm8524 -1819l0 4836 -880 0 0 -4139 -1635 0 0 1369c0,953 -127,1653 -380,2100 -253,447 -685,670 -1297,670l-250 0 18 -750 183 -5c313,0 531,-153 655,-458 123,-306 186,-825 186,-1557l0 -2066 3400 0zm5593 0l0 4836 -881 0 0 -1876 -1193 0 -1144 1876 -947 0 1223 -2006c-306,-111 -543,-285 -707,-523 -165,-240 -249,-514 -249,-827 0,-435 165,-790 494,-1067 330,-276 783,-413 1361,-413l2043 0zm-3013 1489c0,214 73,397 219,549 147,153 365,227 658,227l1255 0 0 -1582 -1162 0c-319,0 -560,81 -723,240 -165,160 -247,348 -247,566zm10155 3347c-29,-146 -52,-275 -69,-386 -16,-113 -26,-224 -29,-339 -164,234 -378,428 -642,585 -262,155 -548,233 -851,235 -504,-2 -886,-130 -1150,-388 -264,-258 -396,-613 -396,-1066 0,-461 187,-822 560,-1083 374,-261 882,-391 1523,-391l956 0 0 -479c0,-282 -87,-506 -259,-673 -172,-164 -418,-247 -734,-247 -285,0 -517,70 -692,214 -176,143 -264,314 -264,514l-835 9 -9 -27c-21,-351 143,-673 493,-965 351,-293 802,-439 1358,-439 547,0 988,140 1322,418 334,279 501,680 501,1205l0 2328c0,174 9,340 26,501 18,161 51,318 99,474l-908 0zm-1461 -644c318,0 607,-82 863,-245 256,-164 423,-353 500,-563l0 -787 -988 0c-354,0 -638,90 -851,268 -212,179 -319,389 -319,630 0,215 67,385 201,510 133,125 331,187 594,187zm7171 -3495l-2195 0 0 4139 -881 0 0 -4836 3076 0 0 697zm5412 1904c0,697 -166,1260 -500,1687 -334,428 -795,641 -1381,643 -299,-2 -560,-51 -784,-151 -226,-100 -416,-249 -575,-449l0 2365 -880 0 0 -6696 674 0 139 626c158,-232 355,-409 590,-531 235,-124 510,-185 822,-185 600,0 1065,238 1396,714 333,474 499,1103 499,1884l0 93zm-880 -93c0,-549 -108,-999 -323,-1353 -217,-353 -534,-529 -956,-529 -253,0 -469,57 -648,172 -178,114 -323,271 -433,471l0 2337c110,200 255,356 433,467 179,113 398,168 658,168 416,0 732,-152 947,-458 215,-305 322,-698 322,-1182l0 -93zm2329 -134c0,-716 194,-1305 581,-1768 388,-464 914,-696 1578,-696 671,0 1200,232 1589,694 389,461 583,1051 583,1770l0 97c0,722 -194,1312 -581,1770 -388,459 -914,688 -1582,690 -667,-2 -1196,-231 -1584,-691 -389,-461 -584,-1050 -584,-1769l0 -97zm880 97c0,513 109,936 325,1270 215,334 537,500 963,500 421,0 738,-166 956,-500 219,-334 327,-757 327,-1270l0 -97c0,-507 -110,-929 -328,-1265 -220,-337 -540,-505 -964,-505 -420,0 -739,168 -954,505 -216,336 -325,758 -325,1265l0 97zm7230 -2561c616,0 1103,232 1461,694 357,461 536,1051 536,1770l0 97c0,722 -194,1312 -582,1770 -387,459 -914,688 -1582,690 -666,-2 -1196,-231 -1583,-691 -389,-461 -585,-1050 -585,-1769l0 -97c0,-25 0,-44 0,-61 0,-17 2,-35 5,-55l0 -1051c0,-917 185,-1593 552,-2028 368,-433 910,-669 1625,-708 410,-21 728,-71 952,-154 223,-82 336,-222 336,-422l674 0 9 27c15,470 -142,801 -470,990 -328,189 -802,290 -1425,301 -453,12 -816,137 -1090,375 -275,240 -408,592 -399,1060l14 23c175,-224 401,-407 674,-547 275,-142 566,-214 878,-214zm-176 694c-419,0 -737,168 -952,505 -213,336 -322,758 -322,1265l0 97c0,513 109,936 322,1270 215,334 536,500 961,500 421,0 739,-166 957,-500 218,-334 326,-757 326,-1270l0 -97c0,-507 -110,-929 -328,-1265 -219,-337 -540,-505 -964,-505zm6648 -604l880 0 0 4836 -880 0 0 -3432 -26 -10 -2137 3442 -876 0 0 -4836 876 0 0 3433 27 9 2136 -3442zm4613 2011c343,0 597,-60 758,-179 162,-119 244,-288 244,-509 0,-200 -90,-369 -271,-511 -180,-142 -441,-212 -784,-212 -304,0 -559,71 -765,218 -204,146 -308,323 -308,532l-831 0 -9 -27c-17,-414 160,-751 532,-1012 372,-261 833,-392 1381,-392 596,0 1068,122 1415,365 347,242 521,589 521,1039 0,218 -74,418 -217,599 -145,182 -345,325 -601,429 291,96 516,238 673,429 155,190 233,422 233,692 0,450 -188,804 -563,1062 -375,258 -862,388 -1461,388 -551,0 -1026,-129 -1421,-383 -396,-255 -585,-624 -567,-1106l7 -28 832 0c0,227 108,424 322,590 215,168 491,251 827,251 349,0 625,-75 831,-223 206,-150 308,-333 308,-551 0,-256 -90,-444 -271,-564 -183,-121 -453,-182 -815,-182l-929 0 0 -715 929 0zm7541 2825l-881 0 0 -2056 -2154 0 0 2056 -880 0 0 -4836 880 0 0 2092 2154 0 0 -2092 881 0 0 4836zm3862 95c-694,-2 -1236,-223 -1623,-667 -389,-444 -585,-1028 -585,-1751l0 -197c0,-694 202,-1269 601,-1724 402,-455 891,-682 1470,-682 645,0 1130,201 1453,604 324,403 486,937 486,1605l0 464 -3093 0 -13 23c0,485 106,880 321,1182 216,302 542,453 983,453 299,0 560,-41 786,-127 224,-85 418,-202 578,-350l345 572c-174,166 -402,308 -685,422 -283,115 -624,171 -1024,173zm-137 -4327c-309,0 -562,118 -763,354 -202,238 -324,540 -369,911l9 21 2181 0 0 -71c0,-351 -87,-641 -259,-872 -172,-228 -439,-343 -799,-343zm5423 3637c270,0 508,-90 710,-270 202,-180 304,-401 304,-664l795 0 14 28c12,416 -167,787 -537,1111 -370,323 -798,483 -1286,485 -681,-2 -1204,-232 -1575,-694 -369,-461 -554,-1036 -554,-1724l0 -190c0,-681 187,-1254 557,-1717 371,-464 894,-696 1572,-696 538,0 981,168 1324,502 345,333 511,743 499,1228l-10 27 -799 0c0,-295 -96,-546 -288,-753 -192,-208 -435,-310 -726,-310 -432,0 -748,166 -946,502 -199,336 -298,741 -298,1217l0 190c0,485 98,894 293,1228 195,334 513,500 951,500zm6414 595c-29,-146 -52,-275 -68,-386 -17,-113 -26,-224 -29,-339 -165,234 -379,428 -643,585 -262,155 -547,233 -851,235 -503,-2 -886,-130 -1150,-388 -264,-258 -395,-613 -395,-1066 0,-461 186,-822 560,-1083 373,-261 881,-391 1522,-391l957 0 0 -479c0,-282 -87,-506 -260,-673 -172,-164 -418,-247 -734,-247 -285,0 -517,70 -692,214 -176,143 -264,314 -264,514l-835 9 -9 -27c-21,-351 144,-673 493,-965 351,-293 802,-439 1358,-439 547,0 988,140 1322,418 335,279 501,680 501,1205l0 2328c0,174 9,340 26,501 18,161 52,318 99,474l-908 0zm-1461 -644c319,0 607,-82 863,-245 256,-164 423,-353 501,-563l0 -787 -989 0c-354,0 -638,90 -851,268 -212,179 -319,389 -319,630 0,215 67,385 201,510 133,125 331,187 594,187z"/>
  </g>
 </g>
</svg>
