<?xml version="1.0" encoding="UTF-8"?>
<!DOCTYPE svg PUBLIC "-//W3C//DTD SVG 1.1//EN" "http://www.w3.org/Graphics/SVG/1.1/DTD/svg11.dtd">
<!-- Creator: CorelDRAW X8 -->
<svg xmlns="http://www.w3.org/2000/svg" xml:space="preserve" width="238px" height="40px" version="1.1" shape-rendering="geometricPrecision" text-rendering="geometricPrecision" image-rendering="optimizeQuality" fill-rule="evenodd" clip-rule="evenodd"
viewBox="0 0 157405 26513"
 xmlns:xlink="http://www.w3.org/1999/xlink">
 <g id="Слой_x0020_1">
  <metadata id="CorelCorpID_0Corel-Layer"/>
  <path fill="#1DAB4B" fill-rule="nonzero" d="M77554 6333c-519,276 -910,679 -1173,1206 -272,547 -409,1233 -409,2053 0,563 75,1058 224,1482 142,409 356,756 639,1039l0 2c218,218 457,410 716,576 260,167 538,306 834,417l481 181c-692,1186 -1373,2393 -2081,3567 -144,235 -295,446 -453,630 -161,190 -330,352 -504,486 -177,136 -367,243 -574,322 -202,78 -420,129 -658,156l-40 4 0 461 29 10c227,75 445,132 653,170 197,35 390,53 577,53 318,0 613,-34 883,-103 265,-67 506,-166 720,-297 216,-132 423,-312 623,-543 208,-242 410,-541 607,-900l2113 -3823 1889 0 0 5464 1912 0 0 -10973c0,-347 25,-624 63,-844 54,-317 138,-526 215,-661l1 0c102,-177 264,-306 484,-384 167,-59 370,-89 608,-89l248 0 0 -496 -5104 0c-651,0 -1273,71 -1863,211 -589,140 -1144,348 -1660,623zm5096 507l0 5659 -353 68c-192,38 -383,66 -572,86 -195,20 -377,30 -547,30 -213,0 -436,-29 -669,-87 -221,-54 -451,-136 -687,-244 -244,-112 -467,-254 -671,-430 -200,-171 -384,-376 -555,-618 -172,-242 -300,-519 -385,-829 -82,-302 -124,-631 -124,-984 0,-353 42,-682 124,-985 85,-309 213,-586 385,-829 171,-241 355,-446 555,-618 204,-175 427,-318 671,-429 236,-109 466,-190 687,-245 233,-57 456,-86 669,-86 169,0 352,10 547,30 189,20 380,48 572,85l353 69 0 357z"/>
  <path fill="#1DAB4B" fill-rule="nonzero" d="M93073 9142c-480,0 -925,64 -1332,191 -403,126 -774,316 -1111,567l-328 246 -264 -315c-48,-57 -98,-107 -152,-150 -54,-44 -114,-84 -181,-120 -129,-70 -286,-123 -473,-159 -202,-39 -438,-58 -712,-58l-1867 0 0 496 450 0c238,0 441,30 608,89 222,79 384,207 485,384l0 1c77,136 161,345 215,660 38,220 63,497 63,844l0 10973 1912 0 0 -4192 585 215c99,37 188,68 266,93 88,28 176,55 265,79 191,53 402,93 632,121 229,27 475,41 736,41 643,0 1207,-119 1689,-356 476,-234 881,-587 1213,-1059 326,-465 572,-995 737,-1587 168,-600 252,-1269 252,-2001 0,-723 -82,-1387 -245,-1988 -160,-591 -398,-1122 -714,-1590 -323,-477 -711,-834 -1161,-1070 -451,-236 -975,-355 -1568,-355zm-2607 1966c246,-352 535,-617 869,-795 339,-181 714,-271 1131,-271 379,0 710,95 1001,290 279,188 508,462 697,830 197,384 344,830 440,1333 95,495 143,1046 143,1650 0,612 -50,1167 -149,1660l-2 0c-102,509 -256,954 -462,1333 -203,371 -455,647 -770,833 -315,187 -678,277 -1101,277 -136,0 -279,-14 -427,-42 -141,-27 -283,-66 -427,-118 -109,-40 -230,-87 -361,-141 -127,-52 -261,-110 -404,-174l-258 -115 0 -6436 80 -114z"/>
  <path fill="#1DAB4B" fill-rule="nonzero" d="M108836 18260c-70,-70 -151,-124 -240,-160 -89,-36 -190,-55 -298,-55l-764 0 0 -8701 -8186 0 0 496 46 0c238,0 441,30 608,89 222,79 384,207 485,384l0 1c77,136 162,345 215,661 38,219 63,496 63,843 0,497 -25,1021 -75,1567 -50,545 -123,1090 -218,1632 -87,492 -196,970 -328,1430 -131,460 -286,904 -462,1330l-112 268 -581 0c-108,0 -209,19 -298,55 -88,36 -168,90 -240,161l-1 0c-70,69 -123,150 -159,239 -37,90 -55,191 -55,299l0 3284 898 0 3 -41c56,-589 139,-1045 230,-1399 128,-497 280,-807 409,-998 161,-238 363,-414 616,-533 238,-112 510,-166 823,-166l4857 0c313,0 585,54 824,166 252,119 454,295 615,533 129,191 281,501 409,998 92,354 174,810 230,1399l4 41 898 0 0 -3284c0,-108 -19,-209 -55,-298 -37,-90 -90,-171 -161,-241zm-3214 -7581l0 7366 -4527 0 189 -570c140,-425 261,-863 364,-1313 104,-457 191,-936 261,-1433 79,-563 141,-1185 184,-1861 45,-689 71,-1421 78,-2192l4 -431 3447 0 0 434z"/>
  <path fill="#F05124" fill-rule="nonzero" d="M42873 17947c-121,-118 -282,-316 -474,-646 -138,-236 -294,-544 -467,-945l-2 -7 -4462 -10850 -671 0 -5704 13447 1013 0 1619 -3845 5600 0 494 1284 3 7c194,532 424,978 688,1335 252,342 536,602 849,778l0 2c319,180 644,316 973,407 320,89 645,133 973,133 159,0 305,-8 435,-25 134,-16 263,-42 387,-77l33 -9 0 -483 -40 -4c-260,-25 -491,-77 -692,-155 -220,-85 -405,-201 -555,-347zm-8546 -4353l2197 -5097 2360 5703 -4818 0 261 -606z"/>
  <path fill="#F05124" fill-rule="nonzero" d="M50543 9344l-6723 0 0 496 248 0c237,0 441,30 608,89 221,79 383,207 485,384l0 1c77,136 161,345 215,661 37,219 62,496 62,843l0 7128 1913 0 0 -8701 2180 0c302,0 576,41 824,125 261,88 487,221 682,399l0 2c197,179 342,393 438,645 91,239 135,507 135,807l0 45 496 0 0 -1260c0,-552 -140,-975 -402,-1251 -256,-269 -649,-413 -1161,-413z"/>
  <path fill="#F05124" fill-rule="nonzero" d="M59101 9142c-480,0 -924,64 -1332,191 -403,126 -774,316 -1111,567l-328 246 -264 -315c-47,-57 -98,-107 -151,-150 -54,-44 -115,-84 -181,-120 -130,-70 -287,-123 -474,-159 -201,-39 -438,-58 -712,-58l-1867 0 0 496 450 0c238,0 441,30 609,89 221,79 383,207 484,384l0 1c78,136 162,345 216,661 37,219 62,496 62,843l0 10973 1913 0 0 -4192 584 215c100,37 189,68 266,93 95,30 183,57 264,79l2 0c190,53 401,93 631,121 229,27 475,41 737,41 642,0 1206,-119 1688,-356 476,-234 882,-587 1213,-1059 326,-465 573,-995 738,-1587 167,-600 251,-1269 251,-2001 0,-723 -82,-1387 -244,-1988 -160,-591 -399,-1122 -715,-1590 -323,-477 -711,-834 -1161,-1070 -451,-236 -975,-355 -1568,-355zm1061 7996c-202,371 -455,647 -769,833 -315,187 -679,277 -1101,277 -137,0 -280,-14 -428,-42 -140,-27 -283,-66 -426,-118 -110,-40 -230,-87 -361,-141 -127,-52 -262,-110 -404,-174l-258 -115 0 -6436 80 -114c246,-352 534,-617 868,-795 339,-181 715,-271 1131,-271 380,0 710,95 1001,290 279,188 508,462 697,830 197,384 344,830 441,1333 95,495 142,1046 142,1650 0,612 -49,1167 -148,1660l-2 0c-49,245 -111,476 -184,691l71 0 -350 642z"/>
  <path fill="#F05124" fill-rule="nonzero" d="M72824 11561c-177,-381 -397,-724 -657,-1026 -259,-302 -558,-564 -897,-784 -338,-219 -709,-385 -1108,-496 -402,-112 -838,-168 -1306,-168 -467,0 -903,56 -1305,168 -400,111 -770,277 -1108,496 -339,220 -639,482 -898,784 -260,302 -479,645 -656,1026 -176,379 -309,780 -397,1199 -88,421 -133,865 -133,1331 0,465 45,910 133,1331 88,419 221,819 397,1198 177,382 396,725 656,1027 259,301 559,563 898,783 338,220 708,385 1108,496 402,112 838,168 1305,168 468,0 904,-56 1306,-168 400,-111 770,-276 1108,-496 339,-220 639,-482 898,-783 260,-302 479,-645 656,-1027 176,-379 309,-780 397,-1199 88,-421 133,-865 133,-1330 0,-465 -45,-910 -133,-1330 -88,-420 -221,-821 -397,-1200zm-1795 4620c-100,303 -224,579 -369,825 -149,254 -319,472 -509,652 -187,177 -386,309 -600,399 -220,91 -450,136 -695,136 -244,0 -474,-45 -694,-136 -214,-90 -413,-222 -599,-399 -191,-181 -361,-399 -511,-652 -145,-247 -268,-523 -368,-826 -103,-313 -181,-647 -233,-1000 -52,-349 -78,-713 -78,-1089 0,-377 26,-741 78,-1090 52,-352 130,-687 233,-1000 100,-303 223,-579 369,-826 149,-253 319,-471 510,-652 186,-177 385,-309 599,-398 220,-92 450,-137 694,-137 245,0 475,45 695,137 214,89 413,221 600,398 190,181 360,398 509,652 145,247 269,523 369,826 103,314 181,648 234,1001 51,349 77,713 77,1089 0,376 -26,740 -77,1089 -53,352 -131,687 -234,1001z"/>
  <path fill="#1DAB4B" fill-rule="nonzero" d="M21668 20599c-4445,-1026 -1446,5840 -1446,5840 0,0 5497,-4906 1446,-5840z"/>
  <path fill="#1DAB4B" fill-rule="nonzero" d="M24357 18272c-3325,826 1020,4402 1020,4402 0,0 2011,-5155 -1020,-4402z"/>
  <path fill="#1DAB4B" fill-rule="nonzero" d="M7900 26093c0,0 11969,2320 9139,-3951 -3106,-6880 -9139,3951 -9139,3951z"/>
  <path fill="#1DAB4B" fill-rule="nonzero" d="M10920 19399c3070,-8329 -10920,-4223 -10920,-4223 0,0 8123,11815 10920,4223z"/>
  <path fill="#1DAB4B" fill-rule="nonzero" d="M7171 12850c7217,-1926 -2388,-9559 -2388,-9559 0,0 -4190,11314 2388,9559z"/>
  <path fill="#1DAB4B" fill-rule="nonzero" d="M10566 6842c5207,1200 1692,-6842 1692,-6842 0,0 -6438,5748 -1692,6842z"/>
  <path fill="#1DAB4B" fill-rule="nonzero" d="M15378 4488c2999,2569 3451,-3901 3451,-3901 0,0 -6184,1559 -3451,3901z"/>
  <path fill="#1DAB4B" fill-rule="nonzero" d="M20133 5579c1768,2746 3658,-2274 3658,-2274 0,0 -5270,-228 -3658,2274z"/>
  <path fill="#1DAB4B" fill-rule="nonzero" d="M26310 7302c0,0 -3526,-1993 -3295,281 253,2495 3295,-281 3295,-281z"/>
  <path fill="#1DAB4B" fill-rule="nonzero" d="M27119 13108c0,0 -795,-3972 -2366,-2312 -1724,1821 2366,2312 2366,2312z"/>
  <path fill="#7905F5" d="M120075 7939l35976 0c745,0 1354,610 1354,1354l0 9816c0,744 -609,1354 -1354,1354l-35976 0c-269,0 -762,-150 -1229,-591l-5964 -5633 5964 -5639c347,-328 882,-661 1229,-661z"/>
  <path fill="#FEFEFE" fill-rule="nonzero" d="M125513 13627c-11,191 -22,399 -33,626 -11,224 -20,450 -29,679 -8,227 -16,444 -24,649 -8,207 -15,386 -21,540l-1191 0c11,-302 28,-641 53,-1019 25,-378 52,-763 82,-1155 30,-392 63,-774 99,-1146 35,-373 70,-707 103,-1003l1019 0c237,383 453,779 652,1190 197,410 406,862 626,1354 231,-525 456,-1011 676,-1457 219,-446 418,-808 593,-1087l1036 0c38,296 75,630 111,1003 36,372 68,754 98,1146 31,392 57,777 79,1155 22,378 38,717 49,1019l-1217 0c-10,-429 -25,-854 -45,-1277 -19,-422 -37,-831 -53,-1226l-907 1993 -849 0 -907 -1984zm6690 1639c121,0 236,-3 345,-8 110,-6 197,-14 263,-25l0 -928c-49,-11 -123,-22 -222,-33 -98,-11 -189,-17 -271,-17 -115,0 -223,7 -325,21 -101,14 -190,39 -267,78 -76,38 -137,90 -181,156 -43,66 -65,148 -65,247 0,191 64,324 193,398 129,74 305,111 530,111zm-99 -3583c362,0 663,41 904,123 242,82 435,200 580,354 145,153 248,339 308,558 60,220 90,463 90,732l0 2547c-175,39 -419,84 -731,136 -312,52 -690,78 -1134,78 -280,0 -533,-24 -760,-74 -228,-49 -424,-130 -588,-242 -164,-113 -290,-259 -378,-440 -88,-181 -132,-403 -132,-666 0,-252 51,-465 152,-641 102,-175 237,-315 407,-419 170,-104 365,-179 584,-226 219,-46 446,-70 682,-70 159,0 300,7 423,21 123,14 224,31 300,53l0 -115c0,-208 -63,-375 -189,-501 -126,-126 -345,-189 -657,-189 -209,0 -414,15 -617,45 -202,30 -378,73 -526,128l-156 -987c71,-22 160,-45 267,-70 107,-24 223,-46 350,-65 126,-19 258,-36 398,-50 140,-13 281,-20 423,-20zm5761 2309c0,-378 -84,-680 -254,-908 -170,-227 -422,-341 -756,-341 -110,0 -211,4 -304,12 -94,9 -170,18 -231,29l0 2211c77,49 177,90 300,123 124,33 248,50 374,50 581,0 871,-392 871,-1176zm1250 -33c0,335 -41,639 -124,913 -82,274 -202,509 -361,706 -159,198 -356,351 -592,461 -235,109 -507,164 -814,164 -169,0 -328,-16 -476,-49 -148,-33 -291,-80 -428,-140l0 1627 -1224 0 0 -5695c109,-33 235,-64 378,-95 142,-30 292,-56 448,-78 156,-22 315,-39 477,-53 161,-14 316,-21 464,-21 356,0 674,54 953,161 280,106 515,257 707,452 192,194 338,431 440,711 101,279 152,591 152,936zm2169 -653c118,-115 244,-241 378,-378 136,-136 266,-271 394,-404 126,-134 246,-265 360,-392 113,-127 216,-238 307,-334l1487 0c-108,116 -244,259 -405,429 -162,170 -333,346 -514,530 -181,183 -363,365 -547,546 -183,181 -356,340 -519,480 165,126 339,283 525,471 185,186 367,386 545,600 178,213 348,430 510,649 161,219 298,426 413,618l-1394 0c-99,-148 -211,-304 -337,-466 -126,-162 -258,-322 -393,-479 -136,-158 -274,-306 -415,-443 -141,-138 -273,-256 -395,-356l0 1744 -1224 0 0 -4323 1224 0 0 1508zm3239 686c0,-383 58,-719 176,-1006 118,-288 273,-528 465,-720 191,-191 412,-337 661,-435 249,-99 506,-148 769,-148 613,0 1098,187 1454,563 356,375 534,927 534,1656 0,71 -2,149 -8,234 -5,85 -11,160 -16,226l-2778 0c27,252 145,452 353,600 209,148 488,222 839,222 224,0 445,-21 661,-62 217,-41 393,-92 530,-152l165 995c-66,32 -154,65 -263,98 -110,33 -232,62 -366,87 -134,24 -278,45 -432,61 -153,17 -306,25 -460,25 -389,0 -727,-58 -1015,-173 -287,-115 -526,-272 -715,-472 -189,-200 -329,-437 -419,-711 -90,-274 -135,-570 -135,-888zm2876 -468c-6,-104 -23,-206 -53,-304 -31,-99 -77,-187 -140,-263 -63,-77 -143,-140 -239,-189 -95,-50 -215,-74 -357,-74 -137,0 -255,23 -353,70 -99,46 -181,108 -247,185 -66,76 -116,165 -152,267 -36,101 -62,204 -78,308l1619 0zm5703 -723l-1380 0 0 3320 -1225 0 0 -3320 -1380 0 0 -1003 3985 0 0 1003z"/>
  <path fill="#FEFEFE" d="M117789 13125c488,0 884,396 884,884 0,488 -396,883 -884,883 -487,0 -883,-395 -883,-883 0,-488 396,-884 883,-884z"/>
 </g>
</svg>
