<?xml version="1.0" encoding="utf-8"?>
<!-- Generator: Adobe Illustrator 21.0.2, SVG Export Plug-In . SVG Version: 6.00 Build 0)  -->
<svg version="1.1"
	 id="Layer_1" text-rendering="geometricPrecision" image-rendering="optimizeQuality" shape-rendering="geometricPrecision"
	 xmlns="http://www.w3.org/2000/svg" xmlns:xlink="http://www.w3.org/1999/xlink" x="0px" y="0px" viewBox="0 0 238 40"
	 style="enable-background:new 0 0 238 40;" xml:space="preserve">
<style type="text/css">
	.st0{fill:#FFFFFF;}
	.st1{fill:#7905F5;}
	.st2{fill:#FEFEFE;}
</style>
<path class="st0" d="M117.3,9.6c-0.8,0.4-1.4,1-1.8,1.8c-0.4,0.8-0.6,1.9-0.6,3.1c0,0.8,0.1,1.6,0.3,2.2c0.2,0.6,0.5,1.1,1,1.6v0
	c0.3,0.3,0.7,0.6,1.1,0.9c0.4,0.3,0.8,0.5,1.3,0.6l0.7,0.3c-1,1.8-2.1,3.6-3.1,5.4c-0.2,0.4-0.4,0.7-0.7,1c-0.2,0.3-0.5,0.5-0.8,0.7
	c-0.3,0.2-0.6,0.4-0.9,0.5c-0.3,0.1-0.6,0.2-1,0.2l-0.1,0v0.7l0,0c0.3,0.1,0.7,0.2,1,0.3c0.3,0.1,0.6,0.1,0.9,0.1
	c0.5,0,0.9-0.1,1.3-0.2c0.4-0.1,0.8-0.3,1.1-0.4c0.3-0.2,0.6-0.5,0.9-0.8c0.3-0.4,0.6-0.8,0.9-1.4l3.2-5.8h2.8v8.2h2.9V12
	c0-0.5,0-0.9,0.1-1.3c0.1-0.5,0.2-0.8,0.3-1h0c0.2-0.3,0.4-0.5,0.7-0.6c0.3-0.1,0.6-0.1,0.9-0.1h0.4V8.3h-7.7c-1,0-1.9,0.1-2.8,0.3
	C118.9,8.8,118,9.1,117.3,9.6z M125,10.3v8.5l-0.5,0.1c-0.3,0.1-0.6,0.1-0.9,0.1c-0.3,0-0.6,0-0.8,0c-0.3,0-0.7,0-1-0.1
	c-0.3-0.1-0.7-0.2-1-0.4c-0.4-0.2-0.7-0.4-1-0.6c-0.3-0.3-0.6-0.6-0.8-0.9c-0.3-0.4-0.5-0.8-0.6-1.3c-0.1-0.5-0.2-1-0.2-1.5
	s0.1-1,0.2-1.5c0.1-0.5,0.3-0.9,0.6-1.3c0.3-0.4,0.5-0.7,0.8-0.9c0.3-0.3,0.6-0.5,1-0.6c0.4-0.2,0.7-0.3,1-0.4
	c0.4-0.1,0.7-0.1,1-0.1c0.3,0,0.5,0,0.8,0c0.3,0,0.6,0.1,0.9,0.1l0.5,0.1V10.3z"/>
<path class="st0" d="M140.7,13.8c-0.7,0-1.4,0.1-2,0.3c-0.6,0.2-1.2,0.5-1.7,0.9l-0.5,0.4l-0.4-0.5c-0.1-0.1-0.1-0.2-0.2-0.2
	c-0.1-0.1-0.2-0.1-0.3-0.2c-0.2-0.1-0.4-0.2-0.7-0.2c-0.3-0.1-0.7-0.1-1.1-0.1H131v0.7h0.7c0.4,0,0.7,0,0.9,0.1
	c0.3,0.1,0.6,0.3,0.7,0.6v0c0.1,0.2,0.2,0.5,0.3,1c0.1,0.3,0.1,0.7,0.1,1.3v16.6h2.9v-6.3l0.9,0.3c0.1,0.1,0.3,0.1,0.4,0.1
	c0.1,0,0.3,0.1,0.4,0.1c0.3,0.1,0.6,0.1,1,0.2c0.3,0,0.7,0.1,1.1,0.1c1,0,1.8-0.2,2.5-0.5c0.7-0.4,1.3-0.9,1.8-1.6
	c0.5-0.7,0.9-1.5,1.1-2.4c0.3-0.9,0.4-1.9,0.4-3c0-1.1-0.1-2.1-0.4-3c-0.2-0.9-0.6-1.7-1.1-2.4c-0.5-0.7-1.1-1.3-1.8-1.6
	C142.4,14,141.6,13.8,140.7,13.8z M136.7,16.8c0.4-0.5,0.8-0.9,1.3-1.2c0.5-0.3,1.1-0.4,1.7-0.4c0.6,0,1.1,0.1,1.5,0.4
	c0.4,0.3,0.8,0.7,1.1,1.3c0.3,0.6,0.5,1.3,0.7,2c0.1,0.7,0.2,1.6,0.2,2.5c0,0.9-0.1,1.8-0.2,2.5h0c-0.2,0.8-0.4,1.4-0.7,2
	c-0.3,0.6-0.7,1-1.2,1.3c-0.5,0.3-1,0.4-1.7,0.4c-0.2,0-0.4,0-0.6-0.1c-0.2,0-0.4-0.1-0.6-0.2c-0.2-0.1-0.3-0.1-0.5-0.2
	c-0.2-0.1-0.4-0.2-0.6-0.3l-0.4-0.2v-9.7L136.7,16.8z"/>
<path class="st0" d="M164.5,27.5c-0.1-0.1-0.2-0.2-0.4-0.2c-0.1-0.1-0.3-0.1-0.4-0.1h-1.2V14.1h-12.4v0.7h0.1c0.4,0,0.7,0,0.9,0.1
	c0.3,0.1,0.6,0.3,0.7,0.6v0c0.1,0.2,0.2,0.5,0.3,1c0.1,0.3,0.1,0.7,0.1,1.3c0,0.7,0,1.5-0.1,2.4c-0.1,0.8-0.2,1.6-0.3,2.5
	c-0.1,0.7-0.3,1.5-0.5,2.2c-0.2,0.7-0.4,1.4-0.7,2l-0.2,0.4h-0.9c-0.2,0-0.3,0-0.4,0.1c-0.1,0.1-0.3,0.1-0.4,0.2h0
	c-0.1,0.1-0.2,0.2-0.2,0.4c-0.1,0.1-0.1,0.3-0.1,0.5v5h1.4l0-0.1c0.1-0.9,0.2-1.6,0.3-2.1c0.2-0.7,0.4-1.2,0.6-1.5
	c0.2-0.4,0.5-0.6,0.9-0.8c0.4-0.2,0.8-0.3,1.2-0.3h7.3c0.5,0,0.9,0.1,1.2,0.3c0.4,0.2,0.7,0.4,0.9,0.8c0.2,0.3,0.4,0.8,0.6,1.5
	c0.1,0.5,0.3,1.2,0.3,2.1l0,0.1h1.4v-5c0-0.2,0-0.3-0.1-0.4C164.6,27.8,164.6,27.7,164.5,27.5z M159.6,16.1v11.1h-6.8l0.3-0.9
	c0.2-0.6,0.4-1.3,0.5-2c0.2-0.7,0.3-1.4,0.4-2.2c0.1-0.8,0.2-1.8,0.3-2.8c0.1-1,0.1-2.1,0.1-3.3l0-0.7h5.2V16.1z"/>
<path class="st0" d="M64.9,27.1c-0.2-0.2-0.4-0.5-0.7-1c-0.2-0.4-0.4-0.8-0.7-1.4l0,0L56.8,8.3h-1l-8.6,20.3h1.5l2.4-5.8h8.4
	l0.7,1.9l0,0c0.3,0.8,0.6,1.5,1,2c0.4,0.5,0.8,0.9,1.3,1.2v0c0.5,0.3,1,0.5,1.5,0.6c0.5,0.1,1,0.2,1.5,0.2c0.2,0,0.5,0,0.7,0
	c0.2,0,0.4-0.1,0.6-0.1l0,0v-0.7l-0.1,0c-0.4,0-0.7-0.1-1-0.2C65.4,27.5,65.2,27.3,64.9,27.1z M52.1,20.5l3.3-7.7l3.6,8.6h-7.3
	L52.1,20.5z"/>
<path class="st0" d="M76.5,14.1H66.4v0.7h0.4c0.4,0,0.7,0,0.9,0.1c0.3,0.1,0.6,0.3,0.7,0.6v0c0.1,0.2,0.2,0.5,0.3,1
	c0.1,0.3,0.1,0.7,0.1,1.3v10.8h2.9V15.5H75c0.5,0,0.9,0.1,1.2,0.2c0.4,0.1,0.7,0.3,1,0.6v0c0.3,0.3,0.5,0.6,0.7,1
	c0.1,0.4,0.2,0.8,0.2,1.2v0.1h0.7v-1.9c0-0.8-0.2-1.5-0.6-1.9C77.9,14.3,77.3,14.1,76.5,14.1z"/>
<path class="st0" d="M89.4,13.8c-0.7,0-1.4,0.1-2,0.3c-0.6,0.2-1.2,0.5-1.7,0.9l-0.5,0.4l-0.4-0.5c-0.1-0.1-0.1-0.2-0.2-0.2
	c-0.1-0.1-0.2-0.1-0.3-0.2c-0.2-0.1-0.4-0.2-0.7-0.2c-0.3-0.1-0.7-0.1-1.1-0.1h-2.8v0.7h0.7c0.4,0,0.7,0,0.9,0.1
	c0.3,0.1,0.6,0.3,0.7,0.6v0c0.1,0.2,0.2,0.5,0.3,1c0.1,0.3,0.1,0.7,0.1,1.3v16.6h2.9v-6.3l0.9,0.3c0.2,0.1,0.3,0.1,0.4,0.1
	c0.1,0,0.3,0.1,0.4,0.1h0c0.3,0.1,0.6,0.1,1,0.2c0.3,0,0.7,0.1,1.1,0.1c1,0,1.8-0.2,2.5-0.5c0.7-0.4,1.3-0.9,1.8-1.6
	c0.5-0.7,0.9-1.5,1.1-2.4c0.3-0.9,0.4-1.9,0.4-3c0-1.1-0.1-2.1-0.4-3c-0.2-0.9-0.6-1.7-1.1-2.4c-0.5-0.7-1.1-1.3-1.8-1.6
	C91.1,14,90.3,13.8,89.4,13.8z M91,25.9c-0.3,0.6-0.7,1-1.2,1.3c-0.5,0.3-1,0.4-1.7,0.4c-0.2,0-0.4,0-0.6-0.1
	c-0.2,0-0.4-0.1-0.6-0.2c-0.2-0.1-0.3-0.1-0.5-0.2c-0.2-0.1-0.4-0.2-0.6-0.3l-0.4-0.2v-9.7l0.1-0.2c0.4-0.5,0.8-0.9,1.3-1.2
	c0.5-0.3,1.1-0.4,1.7-0.4c0.6,0,1.1,0.1,1.5,0.4c0.4,0.3,0.8,0.7,1.1,1.3c0.3,0.6,0.5,1.3,0.7,2c0.1,0.7,0.2,1.6,0.2,2.5
	c0,0.9-0.1,1.8-0.2,2.5h0c-0.1,0.4-0.2,0.7-0.3,1h0.1L91,25.9z"/>
<path class="st0" d="M110.1,17.4c-0.3-0.6-0.6-1.1-1-1.5c-0.4-0.5-0.8-0.9-1.4-1.2c-0.5-0.3-1.1-0.6-1.7-0.7c-0.6-0.2-1.3-0.3-2-0.3
	c-0.7,0-1.4,0.1-2,0.3c-0.6,0.2-1.2,0.4-1.7,0.7c-0.5,0.3-1,0.7-1.4,1.2c-0.4,0.5-0.7,1-1,1.5c-0.3,0.6-0.5,1.2-0.6,1.8
	c-0.1,0.6-0.2,1.3-0.2,2c0,0.7,0.1,1.4,0.2,2c0.1,0.6,0.3,1.2,0.6,1.8c0.3,0.6,0.6,1.1,1,1.5c0.4,0.5,0.8,0.8,1.4,1.2
	c0.5,0.3,1.1,0.6,1.7,0.7c0.6,0.2,1.3,0.3,2,0.3c0.7,0,1.4-0.1,2-0.3c0.6-0.2,1.2-0.4,1.7-0.7c0.5-0.3,1-0.7,1.4-1.2
	c0.4-0.5,0.7-1,1-1.5c0.3-0.6,0.5-1.2,0.6-1.8c0.1-0.6,0.2-1.3,0.2-2c0-0.7-0.1-1.4-0.2-2C110.6,18.6,110.4,18,110.1,17.4z
	 M107.4,24.4c-0.2,0.5-0.3,0.9-0.6,1.2c-0.2,0.4-0.5,0.7-0.8,1c-0.3,0.3-0.6,0.5-0.9,0.6c-0.3,0.1-0.7,0.2-1,0.2
	c-0.4,0-0.7-0.1-1-0.2c-0.3-0.1-0.6-0.3-0.9-0.6c-0.3-0.3-0.5-0.6-0.8-1c-0.2-0.4-0.4-0.8-0.6-1.2c-0.2-0.5-0.3-1-0.4-1.5
	c-0.1-0.5-0.1-1.1-0.1-1.6c0-0.6,0-1.1,0.1-1.6c0.1-0.5,0.2-1,0.4-1.5c0.2-0.5,0.3-0.9,0.6-1.2c0.2-0.4,0.5-0.7,0.8-1
	c0.3-0.3,0.6-0.5,0.9-0.6c0.3-0.1,0.7-0.2,1-0.2c0.4,0,0.7,0.1,1,0.2c0.3,0.1,0.6,0.3,0.9,0.6c0.3,0.3,0.5,0.6,0.8,1
	c0.2,0.4,0.4,0.8,0.6,1.2c0.2,0.5,0.3,1,0.4,1.5c0.1,0.5,0.1,1.1,0.1,1.6s0,1.1-0.1,1.6C107.7,23.4,107.6,23.9,107.4,24.4z"/>
<path class="st0" d="M33,31.1c-6.7-1.5-2.2,8.8-2.2,8.8S39.1,32.5,33,31.1z"/>
<path class="st0" d="M37,27.6c-5,1.2,1.5,6.6,1.5,6.6S41.6,26.4,37,27.6z"/>
<path class="st0" d="M12.2,39.4c0,0,18.1,3.5,13.8-6C21.3,23,12.2,39.4,12.2,39.4z"/>
<path class="st0" d="M16.7,29.3c4.6-12.6-16.5-6.4-16.5-6.4S12.5,40.7,16.7,29.3z"/>
<path class="st0" d="M11.1,19.4C22,16.5,7.5,5,7.5,5S1.2,22,11.1,19.4z"/>
<path class="st0" d="M16.2,10.3C24.1,12.1,18.8,0,18.8,0S9,8.7,16.2,10.3z"/>
<path class="st0" d="M23.5,6.8c4.5,3.9,5.2-5.9,5.2-5.9S19.3,3.2,23.5,6.8z"/>
<path class="st0" d="M30.6,8.4c2.7,4.1,5.5-3.4,5.5-3.4S28.2,4.6,30.6,8.4z"/>
<path class="st0" d="M40,11c0,0-5.3-3-5,0.4C35.4,15.2,40,11,40,11z"/>
<path class="st0" d="M41.2,19.8c0,0-1.2-6-3.6-3.5C35,19,41.2,19.8,41.2,19.8z"/>
<path class="st1" d="M181.4,12h54.3c1.1,0,2,0.9,2,2v14.8c0,1.1-0.9,2-2,2h-54.3c-0.4,0-1.1-0.2-1.9-0.9l-9-8.5l9-8.5
	C180.1,12.5,180.9,12,181.4,12z"/>
<path class="st2" d="M189.6,20.6c0,0.3,0,0.6,0,0.9c0,0.3,0,0.7,0,1c0,0.3,0,0.7,0,1c0,0.3,0,0.6,0,0.8h-1.8c0-0.5,0-1,0.1-1.5
	s0.1-1.2,0.1-1.7c0-0.6,0.1-1.2,0.1-1.7c0.1-0.6,0.1-1.1,0.2-1.5h1.5c0.4,0.6,0.7,1.2,1,1.8c0.3,0.6,0.6,1.3,0.9,2
	c0.3-0.8,0.7-1.5,1-2.2c0.3-0.7,0.6-1.2,0.9-1.6h1.6c0.1,0.4,0.1,1,0.2,1.5c0.1,0.6,0.1,1.1,0.1,1.7c0,0.6,0.1,1.2,0.1,1.7
	s0.1,1.1,0.1,1.5h-1.8c0-0.6,0-1.3-0.1-1.9c0-0.6-0.1-1.3-0.1-1.8l-1.4,3H191L189.6,20.6z M199.7,23c0.2,0,0.4,0,0.5,0
	c0.2,0,0.3,0,0.4,0v-1.4c-0.1,0-0.2,0-0.3,0c-0.1,0-0.3,0-0.4,0c-0.2,0-0.3,0-0.5,0c-0.2,0-0.3,0.1-0.4,0.1
	c-0.1,0.1-0.2,0.1-0.3,0.2c-0.1,0.1-0.1,0.2-0.1,0.4c0,0.3,0.1,0.5,0.3,0.6S199.4,23,199.7,23z M199.6,17.6c0.5,0,1,0.1,1.4,0.2
	c0.4,0.1,0.7,0.3,0.9,0.5c0.2,0.2,0.4,0.5,0.5,0.8c0.1,0.3,0.1,0.7,0.1,1.1v3.8c-0.3,0.1-0.6,0.1-1.1,0.2c-0.5,0.1-1,0.1-1.7,0.1
	c-0.4,0-0.8,0-1.1-0.1c-0.3-0.1-0.6-0.2-0.9-0.4c-0.2-0.2-0.4-0.4-0.6-0.7c-0.1-0.3-0.2-0.6-0.2-1c0-0.4,0.1-0.7,0.2-1
	c0.2-0.3,0.4-0.5,0.6-0.6c0.3-0.2,0.6-0.3,0.9-0.3c0.3-0.1,0.7-0.1,1-0.1c0.2,0,0.5,0,0.6,0c0.2,0,0.3,0,0.5,0.1v-0.2
	c0-0.3-0.1-0.6-0.3-0.8c-0.2-0.2-0.5-0.3-1-0.3c-0.3,0-0.6,0-0.9,0.1c-0.3,0-0.6,0.1-0.8,0.2l-0.2-1.5c0.1,0,0.2-0.1,0.4-0.1
	c0.2,0,0.3-0.1,0.5-0.1c0.2,0,0.4-0.1,0.6-0.1C199.1,17.6,199.4,17.6,199.6,17.6z M208.3,21.1c0-0.6-0.1-1-0.4-1.4
	c-0.3-0.3-0.6-0.5-1.1-0.5c-0.2,0-0.3,0-0.5,0c-0.1,0-0.3,0-0.3,0v3.3c0.1,0.1,0.3,0.1,0.5,0.2c0.2,0,0.4,0.1,0.6,0.1
	C207.8,22.9,208.3,22.3,208.3,21.1z M210.1,21.1c0,0.5-0.1,1-0.2,1.4c-0.1,0.4-0.3,0.8-0.5,1.1c-0.2,0.3-0.5,0.5-0.9,0.7
	c-0.4,0.2-0.8,0.2-1.2,0.2c-0.3,0-0.5,0-0.7-0.1c-0.2,0-0.4-0.1-0.6-0.2v2.5h-1.8V18c0.2,0,0.4-0.1,0.6-0.1c0.2,0,0.4-0.1,0.7-0.1
	c0.2,0,0.5-0.1,0.7-0.1c0.2,0,0.5,0,0.7,0c0.5,0,1,0.1,1.4,0.2c0.4,0.2,0.8,0.4,1.1,0.7c0.3,0.3,0.5,0.7,0.7,1.1
	C210.1,20.1,210.1,20.5,210.1,21.1z M213.4,20.1c0.2-0.2,0.4-0.4,0.6-0.6c0.2-0.2,0.4-0.4,0.6-0.6c0.2-0.2,0.4-0.4,0.5-0.6
	c0.2-0.2,0.3-0.4,0.5-0.5h2.2c-0.2,0.2-0.4,0.4-0.6,0.6c-0.2,0.3-0.5,0.5-0.8,0.8c-0.3,0.3-0.5,0.6-0.8,0.8
	c-0.3,0.3-0.5,0.5-0.8,0.7c0.2,0.2,0.5,0.4,0.8,0.7c0.3,0.3,0.6,0.6,0.8,0.9c0.3,0.3,0.5,0.6,0.8,1c0.2,0.3,0.4,0.6,0.6,0.9h-2.1
	c-0.1-0.2-0.3-0.5-0.5-0.7c-0.2-0.2-0.4-0.5-0.6-0.7c-0.2-0.2-0.4-0.5-0.6-0.7c-0.2-0.2-0.4-0.4-0.6-0.5v2.6h-1.8v-6.5h1.8V20.1z
	 M218.3,21.1c0-0.6,0.1-1.1,0.3-1.5c0.2-0.4,0.4-0.8,0.7-1.1c0.3-0.3,0.6-0.5,1-0.7c0.4-0.1,0.8-0.2,1.2-0.2c0.9,0,1.7,0.3,2.2,0.8
	c0.5,0.6,0.8,1.4,0.8,2.5c0,0.1,0,0.2,0,0.4c0,0.1,0,0.2,0,0.3h-4.2c0,0.4,0.2,0.7,0.5,0.9c0.3,0.2,0.7,0.3,1.3,0.3
	c0.3,0,0.7,0,1-0.1c0.3-0.1,0.6-0.1,0.8-0.2l0.2,1.5c-0.1,0-0.2,0.1-0.4,0.1c-0.2,0-0.4,0.1-0.6,0.1c-0.2,0-0.4,0.1-0.7,0.1
	c-0.2,0-0.5,0-0.7,0c-0.6,0-1.1-0.1-1.5-0.3c-0.4-0.2-0.8-0.4-1.1-0.7s-0.5-0.7-0.6-1.1C218.4,22,218.3,21.6,218.3,21.1z
	 M222.6,20.4c0-0.2,0-0.3-0.1-0.5c0-0.1-0.1-0.3-0.2-0.4c-0.1-0.1-0.2-0.2-0.4-0.3c-0.1-0.1-0.3-0.1-0.5-0.1c-0.2,0-0.4,0-0.5,0.1
	c-0.1,0.1-0.3,0.2-0.4,0.3c-0.1,0.1-0.2,0.2-0.2,0.4c-0.1,0.2-0.1,0.3-0.1,0.5H222.6z M231.2,19.3h-2.1v5h-1.8v-5h-2.1v-1.5h6V19.3z
	"/>
<path class="st2" d="M178,19.8c0.7,0,1.3,0.6,1.3,1.3c0,0.7-0.6,1.3-1.3,1.3c-0.7,0-1.3-0.6-1.3-1.3C176.6,20.4,177.2,19.8,178,19.8
	z"/>
</svg>
