<?xml version="1.0" encoding="UTF-8"?>
<!DOCTYPE svg PUBLIC "-//W3C//DTD SVG 1.1//EN" "http://www.w3.org/Graphics/SVG/1.1/DTD/svg11.dtd">
<!-- Creator: CorelDRAW X8 -->
<svg xmlns="http://www.w3.org/2000/svg" xml:space="preserve" width="97px" height="83px" version="1.1" shape-rendering="geometricPrecision" text-rendering="geometricPrecision" image-rendering="optimizeQuality" fill-rule="evenodd" clip-rule="evenodd"
viewBox="0 0 11497 9839"
 xmlns:xlink="http://www.w3.org/1999/xlink">
 <g id="Слой_x0020_1">
  <metadata id="CorelCorpID_0Corel-Layer"/>
  <path fill="#444444" d="M0 2294l0 317 26 44c57,120 77,270 262,413 129,100 295,205 530,202 580,-10 721,-493 860,-604 75,106 207,626 819,603 413,-16 678,-309 766,-658 52,34 47,28 75,115 97,308 417,539 754,543 339,5 670,-222 772,-524 10,-27 9,-35 21,-63l45 -71c82,144 64,268 286,460 456,393 1115,158 1290,-322l61 -138 0 0c65,67 46,126 117,250 326,568 1285,592 1510,-250 67,37 17,-6 51,51 19,31 19,87 80,194 271,476 982,600 1367,57 63,-89 79,-180 127,-247 115,92 175,288 338,415 136,106 328,197 564,188 300,-11 561,-209 683,-447 45,-88 60,-202 93,-277l0 -202c-60,-124 -52,-213 -145,-353l-1487 -1990 -3298 0 -4170 0 -761 2c-277,315 -942,1287 -1267,1687 -182,225 -235,289 -330,529l-39 76z"/>
  <path fill="#444444" d="M1325 9832l8842 7 5 -5957c-154,-49 -4155,-14 -4424,-14 -261,0 -4282,-34 -4423,15l0 5949z"/>
  <path fill="#444444" d="M1325 9837l8842 2 5 -1364c-154,-11 -4155,-3 -4424,-3 -261,0 -4282,-7 -4423,4l0 1361z"/>
 </g>
</svg>
